<?xml version="1.0" encoding="UTF-8"?><svg xmlns="http://www.w3.org/2000/svg" viewBox="0 0 711 750" width="711" height="750"><path fill="#fff" d="M535 8h8v1H535zM532 9h14v1H532zM529 10h21v1H529zM526 11h26v1H526zM524 12h31v1H524zM523 13h35v1H523zM522 14h40v1H522zM522 15h43v1H522zM522 16h46v1H522zM523 17h48v1H523zM524 18h50v1H524zM525 19h52v1H525zM527 20h53v1H527zM528 21h55v1H528zM530 22h56v1H530zM531 23h58v1H531zM533 24h59v1H533zM534 25h61v1H534zM536 26h62v1H536zM676 26h4v1H676zM537 27h65v1H537zM668 27h21v1H668zM539 28h66v1H539zM662 28h31v1H662zM540 29h68v1H540zM658 29h38v1H658zM542 30h69v1H542zM654 30h45v1H654zM543 31h72v1H543zM649 31h52v1H649zM545 32h73v1H545zM645 32h57v1H645zM546 33h75v1H546zM641 33h62v1H641zM548 34h77v1H548zM637 34h66v1H637zM549 35h79v1H549zM633 35h70v1H633zM550 36h153v1H550zM552 37h151v1H552zM553 38h149v1H553zM555 39h147v1H555zM556 40h145v1H556zM558 41h142v1H558zM559 42h140v1H559zM561 43h138v1H561zM562 44h136v1H562zM564 45h133v1H564zM565 46h130v1H565zM567 47h127v1H567zM567 48h125v1H567zM565 49h125v1H565zM563 50h125v1H563zM531 51h3v1H531zM561 51h125v1H561zM520 52h16v1H520zM560 52h123v1H560zM509 53h29v1H509zM563 53h5v1H563zM575 53h105v1H575zM499 54h41v1H499zM577 54h99v1H577zM490 55h51v1H490zM578 55h95v1H578zM481 56h62v1H481zM580 56h90v1H580zM472 57h73v1H472zM581 57h85v1H581zM464 58h83v1H464zM583 58h79v1H583zM456 59h93v1H456zM584 59h75v1H584zM449 60h103v1H449zM586 60h68v1H586zM441 61h115v1H441zM587 61h63v1H587zM434 62h126v1H434zM589 62h60v1H589zM428 63h135v1H428zM591 63h57v1H591zM421 64h145v1H421zM592 64h55v1H592zM414 65h155v1H414zM594 65h52v1H594zM408 66h164v1H408zM596 66h49v1H596zM402 67h174v1H402zM597 67h47v1H597zM397 68h181v1H397zM597 68h45v1H597zM391 69h189v1H391zM597 69h44v1H597zM386 70h195v1H386zM597 70h43v1H597zM381 71h199v1H381zM597 71h42v1H597zM376 72h204v1H376zM596 72h42v1H596zM370 73h209v1H370zM596 73h41v1H596zM365 74h205v1H365zM575 74h4v1H575zM595 74h41v1H595zM360 75h207v1H360zM575 75h3v1H575zM595 75h40v1H595zM355 76h208v1H355zM575 76h2v1H575zM594 76h40v1H594zM351 77h208v1H351zM594 77h38v1H594zM346 78h209v1H346zM593 78h38v1H593zM342 79h209v1H342zM592 79h38v1H592zM338 80h209v1H338zM592 80h37v1H592zM334 81h209v1H334zM591 81h37v1H591zM329 82h211v1H329zM591 82h36v1H591zM325 83h211v1H325zM590 83h35v1H590zM321 84h211v1H321zM589 84h35v1H589zM317 85h212v1H317zM589 85h34v1H589zM313 86h212v1H313zM588 86h34v1H588zM310 87h212v1H310zM587 87h34v1H587zM306 88h212v1H306zM587 88h33v1H587zM303 89h212v1H303zM586 89h33v1H586zM299 90h213v1H299zM586 90h32v1H586zM295 91h213v1H295zM585 91h31v1H585zM291 92h215v1H291zM585 92h30v1H585zM288 93h215v1H288zM584 93h30v1H584zM285 94h214v1H285zM584 94h29v1H584zM282 95h214v1H282zM583 95h29v1H583zM278 96h215v1H278zM582 96h29v1H582zM275 97h215v1H275zM582 97h27v1H582zM272 98h215v1H272zM581 98h27v1H581zM269 99h215v1H269zM581 99h26v1H581zM266 100h216v1H266zM580 100h26v1H580zM263 101h216v1H263zM580 101h25v1H580zM260 102h216v1H260zM579 102h25v1H579zM257 103h216v1H257zM578 103h25v1H578zM254 104h217v1H254zM578 104h23v1H578zM251 105h217v1H251zM577 105h23v1H577zM248 106h217v1H248zM577 106h22v1H577zM245 107h217v1H245zM577 107h21v1H577zM242 108h217v1H242zM577 108h19v1H577zM240 109h217v1H240zM579 109h14v1H579zM237 110h217v1H237zM234 111h218v1H234zM231 112h218v1H231zM228 113h218v1H228zM226 114h218v1H226zM223 115h218v1H223zM221 116h218v1H221zM218 117h219v1H218zM216 118h218v1H216zM213 119h219v1H213zM211 120h218v1H211zM208 121h219v1H208zM206 122h218v1H206zM204 123h218v1H204zM202 124h218v1H202zM199 125h218v1H199zM197 126h218v1H197zM194 127h218v1H194zM192 128h218v1H192zM190 129h218v1H190zM188 130h217v1H188zM186 131h217v1H186zM184 132h217v1H184zM181 133h218v1H181zM179 134h217v1H179zM177 135h217v1H177zM176 136h216v1H176zM173 137h217v1H173zM171 138h216v1H171zM169 139h216v1H169zM167 140h216v1H167zM165 141h215v1H165zM164 142h214v1H164zM162 143h214v1H162zM160 144h214v1H160zM158 145h214v1H158zM156 146h214v1H156zM154 147h214v1H154zM153 148h212v1H153zM151 149h212v1H151zM149 150h212v1H149zM147 151h212v1H147zM145 152h213v1H145zM144 153h212v1H144zM142 154h211v1H142zM140 155h212v1H140zM139 156h210v1H139zM137 157h210v1H137zM135 158h210v1H135zM134 159h209v1H134zM132 160h209v1H132zM130 161h209v1H130zM129 162h208v1H129zM127 163h208v1H127zM126 164h207v1H126zM124 165h207v1H124zM123 166h207v1H123zM121 167h207v1H121zM119 168h207v1H119zM118 169h206v1H118zM116 170h206v1H116zM115 171h205v1H115zM114 172h205v1H114zM112 173h205v1H112zM111 174h204v1H111zM109 175h204v1H109zM108 176h203v1H108zM107 177h202v1H107zM105 178h202v1H105zM104 179h201v1H104zM102 180h202v1H102zM101 181h201v1H101zM100 182h200v1H100zM98 183h200v1H98zM97 184h199v1H97zM96 185h199v1H96zM95 186h198v1H95zM93 187h199v1H93zM92 188h198v1H92zM91 189h197v1H91zM90 190h197v1H90zM88 191h197v1H88zM87 192h196v1H87zM86 193h195v1H86zM85 194h195v1H85zM84 195h194v1H84zM83 196h194v1H83zM81 197h194v1H81zM80 198h193v1H80zM79 199h193v1H79zM78 200h192v1H78zM77 201h192v1H77zM76 202h191v1H76zM75 203h191v1H75zM74 204h190v1H74zM73 205h190v1H73zM72 206h189v1H72zM71 207h188v1H71zM70 208h188v1H70zM69 209h187v1H69zM68 210h187v1H68zM67 211h187v1H67zM66 212h186v1H66zM65 213h186v1H65zM64 214h185v1H64zM63 215h185v1H63zM62 216h184v1H62zM61 217h184v1H61zM60 218h183v1H60zM59 219h183v1H59zM59 220h182v1H59zM58 221h181v1H58zM57 222h181v1H57zM56 223h181v1H56zM55 224h180v1H55zM54 225h180v1H54zM54 226h179v1H54zM53 227h178v1H53zM52 228h178v1H52zM51 229h177v1H51zM51 230h176v1H51zM50 231h176v1H50zM49 232h176v1H49zM48 233h175v1H48zM48 234h174v1H48zM47 235h174v1H47zM46 236h174v1H46zM46 237h172v1H46zM45 238h172v1H45zM44 239h172v1H44zM44 240h171v1H44zM43 241h170v1H43zM42 242h170v1H42zM42 243h169v1H42zM41 244h169v1H41zM350 244h6v1H350zM40 245h169v1H40zM350 245h13v1H350zM40 246h168v1H40zM349 246h20v1H349zM39 247h168v1H39zM349 247h26v1H349zM39 248h167v1H39zM349 248h32v1H349zM38 249h166v1H38zM350 249h37v1H350zM38 250h165v1H38zM351 250h42v1H351zM37 251h165v1H37zM354 251h44v1H354zM36 252h165v1H36zM357 252h46v1H357zM36 253h164v1H36zM359 253h49v1H359zM35 254h164v1H35zM362 254h50v1H362zM35 255h163v1H35zM365 255h52v1H365zM34 256h163v1H34zM368 256h54v1H368zM34 257h162v1H34zM371 257h55v1H371zM33 258h162v1H33zM373 258h57v1H373zM33 259h161v1H33zM376 259h59v1H376zM32 260h161v1H32zM378 260h61v1H378zM32 261h160v1H32zM381 261h62v1H381zM32 262h159v1H32zM384 262h63v1H384zM31 263h159v1H31zM386 263h64v1H386zM31 264h158v1H31zM388 264h66v1H388zM30 265h158v1H30zM391 265h67v1H391zM30 266h157v1H30zM393 266h68v1H393zM30 267h156v1H30zM395 267h70v1H395zM29 268h156v1H29zM398 268h70v1H398zM29 269h155v1H29zM400 269h71v1H400zM29 270h154v1H29zM402 270h73v1H402zM28 271h154v1H28zM405 271h73v1H405zM28 272h153v1H28zM407 272h74v1H407zM27 273h153v1H27zM409 273h76v1H409zM27 274h152v1H27zM411 274h77v1H411zM27 275h152v1H27zM413 275h78v1H413zM26 276h152v1H26zM415 276h78v1H415zM26 277h151v1H26zM417 277h79v1H417zM26 278h150v1H26zM419 278h81v1H419zM25 279h150v1H25zM421 279h82v1H421zM25 280h150v1H25zM423 280h83v1H423zM25 281h149v1H25zM425 281h83v1H425zM25 282h148v1H25zM427 282h84v1H427zM24 283h148v1H24zM429 283h85v1H429zM24 284h147v1H24zM431 284h86v1H431zM24 285h147v1H24zM433 285h86v1H433zM24 286h146v1H24zM435 286h87v1H435zM24 287h145v1H24zM437 287h87v1H437zM23 288h145v1H23zM439 288h87v1H439zM23 289h145v1H23zM440 289h89v1H440zM23 290h144v1H23zM442 290h89v1H442zM23 291h143v1H23zM444 291h90v1H444zM23 292h143v1H23zM445 292h91v1H445zM23 293h142v1H23zM447 293h91v1H447zM22 294h142v1H22zM449 294h92v1H449zM22 295h142v1H22zM451 295h92v1H451zM22 296h141v1H22zM452 296h93v1H452zM22 297h141v1H22zM454 297h93v1H454zM22 298h140v1H22zM456 298h94v1H456zM22 299h139v1H22zM457 299h95v1H457zM22 300h139v1H22zM459 300h95v1H459zM22 301h138v1H22zM460 301h96v1H460zM22 302h138v1H22zM462 302h96v1H462zM22 303h137v1H22zM464 303h96v1H464zM22 304h136v1H22zM465 304h97v1H465zM22 305h136v1H22zM467 305h97v1H467zM22 306h135v1H22zM468 306h98v1H468zM22 307h135v1H22zM470 307h98v1H470zM22 308h134v1H22zM471 308h99v1H471zM22 309h134v1H22zM472 309h100v1H472zM22 310h133v1H22zM474 310h99v1H474zM22 311h133v1H22zM475 311h100v1H475zM22 312h133v1H22zM477 312h100v1H477zM22 313h132v1H22zM478 313h101v1H478zM22 314h132v1H22zM479 314h101v1H479zM22 315h132v1H22zM481 315h101v1H481zM22 316h131v1H22zM482 316h102v1H482zM22 317h131v1H22zM483 317h103v1H483zM22 318h131v1H22zM484 318h103v1H484zM22 319h130v1H22zM486 319h103v1H486zM22 320h130v1H22zM487 320h104v1H487zM23 321h129v1H23zM488 321h104v1H488zM23 322h128v1H23zM490 322h104v1H490zM23 323h128v1H23zM491 323h104v1H491zM23 324h128v1H23zM492 324h105v1H492zM23 325h128v1H23zM493 325h105v1H493zM23 326h128v1H23zM494 326h105v1H494zM24 327h126v1H24zM495 327h106v1H495zM24 328h126v1H24zM496 328h106v1H496zM24 329h126v1H24zM497 329h107v1H497zM24 330h126v1H24zM498 330h107v1H498zM24 331h126v1H24zM499 331h107v1H499zM25 332h125v1H25zM500 332h108v1H500zM25 333h125v1H25zM501 333h108v1H501zM25 334h125v1H25zM503 334h107v1H503zM26 335h124v1H26zM504 335h107v1H504zM26 336h124v1H26zM504 336h109v1H504zM26 337h124v1H26zM505 337h109v1H505zM27 338h123v1H27zM506 338h109v1H506zM27 339h123v1H27zM507 339h109v1H507zM27 340h123v1H27zM508 340h109v1H508zM28 341h122v1H28zM509 341h110v1H509zM28 342h122v1H28zM510 342h110v1H510zM29 343h121v1H29zM511 343h110v1H511zM29 344h121v1H29zM512 344h110v1H512zM30 345h121v1H30zM512 345h111v1H512zM30 346h121v1H30zM513 346h111v1H513zM30 347h121v1H30zM514 347h111v1H514zM31 348h120v1H31zM515 348h111v1H515zM32 349h120v1H32zM515 349h112v1H515zM32 350h120v1H32zM516 350h112v1H516zM33 351h119v1H33zM517 351h112v1H517zM33 352h120v1H33zM517 352h113v1H517zM34 353h119v1H34zM518 353h113v1H518zM34 354h119v1H34zM519 354h113v1H519zM35 355h119v1H35zM519 355h114v1H519zM36 356h118v1H36zM520 356h113v1H520zM36 357h119v1H36zM521 357h113v1H521zM37 358h118v1H37zM521 358h114v1H521zM38 359h118v1H38zM522 359h114v1H522zM38 360h119v1H38zM522 360h115v1H522zM39 361h118v1H39zM523 361h115v1H523zM40 362h118v1H40zM523 362h115v1H523zM41 363h118v1H41zM524 363h115v1H524zM41 364h118v1H41zM524 364h116v1H524zM42 365h118v1H42zM525 365h116v1H525zM43 366h118v1H43zM525 366h116v1H525zM44 367h118v1H44zM526 367h116v1H526zM45 368h118v1H45zM526 368h117v1H526zM46 369h118v1H46zM526 369h118v1H526zM47 370h118v1H47zM527 370h117v1H527zM48 371h118v1H48zM527 371h118v1H527zM49 372h118v1H49zM527 372h119v1H527zM50 373h118v1H50zM528 373h118v1H528zM51 374h118v1H51zM528 374h119v1H528zM52 375h119v1H52zM528 375h120v1H528zM53 376h119v1H53zM529 376h119v1H529zM54 377h119v1H54zM529 377h120v1H529zM56 378h119v1H56zM529 378h120v1H529zM57 379h119v1H57zM529 379h121v1H529zM58 380h119v1H58zM530 380h121v1H530zM59 381h120v1H59zM530 381h121v1H530zM61 382h119v1H61zM530 382h122v1H530zM62 383h120v1H62zM530 383h122v1H530zM64 384h120v1H64zM531 384h122v1H531zM65 385h120v1H65zM531 385h41v1H531zM573 385h80v1H573zM67 386h120v1H67zM531 386h42v1H531zM574 386h80v1H574zM68 387h121v1H68zM531 387h42v1H531zM574 387h80v1H574zM70 388h121v1H70zM531 388h42v1H531zM575 388h80v1H575zM71 389h122v1H71zM531 389h42v1H531zM575 389h80v1H575zM73 390h122v1H73zM531 390h42v1H531zM575 390h81v1H575zM75 391h122v1H75zM531 391h42v1H531zM575 391h81v1H575zM77 392h122v1H77zM531 392h42v1H531zM576 392h80v1H576zM79 393h122v1H79zM531 393h42v1H531zM576 393h81v1H576zM81 394h122v1H81zM531 394h43v1H531zM576 394h81v1H576zM83 395h122v1H83zM531 395h43v1H531zM576 395h81v1H576zM85 396h122v1H85zM531 396h43v1H531zM577 396h81v1H577zM87 397h123v1H87zM531 397h43v1H531zM577 397h81v1H577zM89 398h123v1H89zM531 398h43v1H531zM577 398h82v1H577zM91 399h123v1H91zM531 399h43v1H531zM577 399h82v1H577zM94 400h123v1H94zM531 400h43v1H531zM577 400h82v1H577zM96 401h124v1H96zM531 401h43v1H531zM577 401h83v1H577zM99 402h123v1H99zM530 402h44v1H530zM577 402h83v1H577zM101 403h124v1H101zM530 403h44v1H530zM577 403h83v1H577zM103 404h125v1H103zM530 404h44v1H530zM578 404h82v1H578zM106 405h125v1H106zM530 405h44v1H530zM578 405h83v1H578zM108 406h126v1H108zM530 406h43v1H530zM578 406h83v1H578zM112 407h124v1H112zM529 407h44v1H529zM578 407h83v1H578zM115 408h124v1H115zM529 408h44v1H529zM578 408h83v1H578zM117 409h126v1H117zM529 409h44v1H529zM578 409h84v1H578zM120 410h126v1H120zM529 410h44v1H529zM578 410h84v1H578zM123 411h126v1H123zM528 411h45v1H528zM578 411h84v1H578zM127 412h125v1H127zM528 412h45v1H528zM578 412h84v1H578zM130 413h125v1H130zM528 413h45v1H528zM578 413h85v1H578zM133 414h126v1H133zM527 414h45v1H527zM578 414h85v1H578zM137 415h125v1H137zM527 415h45v1H527zM578 415h85v1H578zM141 416h125v1H141zM527 416h45v1H527zM578 416h85v1H578zM145 417h124v1H145zM526 417h46v1H526zM578 417h85v1H578zM149 418h124v1H149zM526 418h46v1H526zM577 418h87v1H577zM153 419h124v1H153zM525 419h47v1H525zM577 419h87v1H577zM157 420h124v1H157zM525 420h46v1H525zM577 420h87v1H577zM161 421h124v1H161zM525 421h46v1H525zM577 421h87v1H577zM165 422h124v1H165zM524 422h47v1H524zM577 422h87v1H577zM170 423h122v1H170zM524 423h47v1H524zM577 423h87v1H577zM174 424h123v1H174zM523 424h47v1H523zM577 424h87v1H577zM179 425h122v1H179zM523 425h47v1H523zM576 425h88v1H576zM185 426h120v1H185zM522 426h48v1H522zM576 426h88v1H576zM190 427h120v1H190zM522 427h47v1H522zM576 427h88v1H576zM194 428h121v1H194zM521 428h48v1H521zM576 428h88v1H576zM200 429h119v1H200zM520 429h49v1H520zM576 429h89v1H576zM206 430h118v1H206zM520 430h48v1H520zM575 430h90v1H575zM212 431h116v1H212zM519 431h49v1H519zM575 431h90v1H575zM218 432h116v1H218zM519 432h48v1H519zM575 432h90v1H575zM226 433h113v1H226zM518 433h49v1H518zM575 433h90v1H575zM232 434h113v1H232zM517 434h50v1H517zM574 434h91v1H574zM239 435h110v1H239zM517 435h49v1H517zM574 435h91v1H574zM248 436h105v1H248zM516 436h50v1H516zM574 436h91v1H574zM256 437h97v1H256zM515 437h51v1H515zM573 437h92v1H573zM265 438h89v1H265zM515 438h50v1H515zM573 438h92v1H573zM275 439h79v1H275zM514 439h51v1H514zM573 439h91v1H573zM288 440h66v1H288zM513 440h51v1H513zM573 440h91v1H573zM304 441h49v1H304zM512 441h52v1H512zM572 441h92v1H572zM325 442h26v1H325zM511 442h52v1H511zM572 442h92v1H572zM511 443h52v1H511zM572 443h92v1H572zM510 444h52v1H510zM571 444h93v1H571zM509 445h53v1H509zM571 445h93v1H571zM508 446h53v1H508zM570 446h94v1H570zM507 447h54v1H507zM570 447h94v1H570zM506 448h54v1H506zM570 448h94v1H570zM505 449h54v1H505zM569 449h94v1H569zM504 450h55v1H504zM569 450h94v1H569zM503 451h55v1H503zM568 451h95v1H568zM502 452h56v1H502zM568 452h95v1H568zM501 453h56v1H501zM567 453h96v1H567zM500 454h57v1H500zM567 454h96v1H567zM499 455h57v1H499zM567 455h96v1H567zM498 456h57v1H498zM566 456h96v1H566zM497 457h58v1H497zM566 457h96v1H566zM496 458h58v1H496zM565 458h97v1H565zM495 459h58v1H495zM565 459h97v1H565zM494 460h59v1H494zM564 460h98v1H564zM492 461h60v1H492zM563 461h98v1H563zM491 462h60v1H491zM563 462h98v1H563zM490 463h60v1H490zM562 463h99v1H562zM489 464h61v1H489zM562 464h99v1H562zM488 465h61v1H488zM561 465h99v1H561zM486 466h62v1H486zM561 466h99v1H561zM485 467h62v1H485zM560 467h100v1H560zM484 468h63v1H484zM559 468h101v1H559zM482 469h64v1H482zM559 469h100v1H559zM481 470h64v1H481zM558 470h101v1H558zM479 471h65v1H479zM558 471h101v1H558zM478 472h66v1H478zM557 472h102v1H557zM477 473h66v1H477zM556 473h102v1H556zM475 474h67v1H475zM556 474h102v1H556zM474 475h67v1H474zM555 475h103v1H555zM472 476h68v1H472zM554 476h103v1H554zM471 477h68v1H471zM553 477h104v1H553zM469 478h69v1H469zM553 478h103v1H553zM467 479h70v1H467zM552 479h104v1H552zM466 480h70v1H466zM551 480h105v1H551zM464 481h71v1H464zM550 481h105v1H550zM462 482h72v1H462zM550 482h105v1H550zM461 483h72v1H461zM549 483h105v1H549zM459 484h73v1H459zM548 484h106v1H548zM457 485h74v1H457zM547 485h107v1H547zM456 486h74v1H456zM547 486h106v1H547zM454 487h75v1H454zM546 487h107v1H546zM452 488h76v1H452zM545 488h107v1H545zM450 489h77v1H450zM544 489h108v1H544zM448 490h78v1H448zM543 490h108v1H543zM446 491h79v1H446zM542 491h109v1H542zM445 492h79v1H445zM542 492h108v1H542zM443 493h80v1H443zM541 493h109v1H541zM440 494h82v1H440zM540 494h110v1H540zM438 495h83v1H438zM539 495h110v1H539zM436 496h84v1H436zM538 496h111v1H538zM434 497h85v1H434zM537 497h111v1H537zM432 498h85v1H432zM536 498h111v1H536zM430 499h86v1H430zM535 499h112v1H535zM428 500h87v1H428zM534 500h112v1H534zM426 501h88v1H426zM533 501h113v1H533zM424 502h89v1H424zM532 502h113v1H532zM421 503h90v1H421zM531 503h114v1H531zM419 504h91v1H419zM530 504h114v1H530zM417 505h92v1H417zM529 505h115v1H529zM414 506h94v1H414zM528 506h115v1H528zM412 507h95v1H412zM527 507h116v1H527zM410 508h95v1H410zM526 508h116v1H526zM407 509h97v1H407zM525 509h116v1H525zM405 510h98v1H405zM524 510h117v1H524zM402 511h99v1H402zM523 511h117v1H523zM400 512h100v1H400zM522 512h117v1H522zM397 513h102v1H397zM521 513h118v1H521zM394 514h104v1H394zM520 514h118v1H520zM392 515h104v1H392zM518 515h119v1H518zM389 516h106v1H389zM517 516h120v1H517zM337 517h16v1H337zM386 517h108v1H386zM516 517h120v1H516zM307 518h45v1H307zM383 518h109v1H383zM515 518h120v1H515zM277 519h72v1H277zM381 519h110v1H381zM514 519h121v1H514zM243 520h100v1H243zM378 520h111v1H378zM513 520h121v1H513zM208 521h129v1H208zM375 521h113v1H375zM512 521h121v1H512zM176 522h156v1H176zM373 522h114v1H373zM510 522h123v1H510zM161 523h167v1H161zM370 523h115v1H370zM509 523h123v1H509zM148 524h174v1H148zM367 524h117v1H367zM508 524h123v1H508zM141 525h176v1H141zM364 525h118v1H364zM507 525h123v1H507zM135 526h176v1H135zM361 526h120v1H361zM505 526h125v1H505zM130 527h175v1H130zM358 527h122v1H358zM504 527h125v1H504zM126 528h172v1H126zM355 528h123v1H355zM503 528h125v1H503zM122 529h168v1H122zM352 529h124v1H352zM502 529h125v1H502zM119 530h164v1H119zM349 530h126v1H349zM500 530h126v1H500zM116 531h161v1H116zM346 531h127v1H346zM499 531h126v1H499zM113 532h156v1H113zM342 532h130v1H342zM498 532h127v1H498zM110 533h152v1H110zM339 533h131v1H339zM496 533h128v1H496zM108 534h146v1H108zM336 534h133v1H336zM495 534h128v1H495zM105 535h141v1H105zM333 535h134v1H333zM494 535h128v1H494zM103 536h134v1H103zM330 536h136v1H330zM492 536h129v1H492zM101 537h128v1H101zM326 537h138v1H326zM491 537h130v1H491zM99 538h121v1H99zM323 538h139v1H323zM490 538h130v1H490zM97 539h116v1H97zM320 539h141v1H320zM488 539h131v1H488zM95 540h109v1H95zM317 540h142v1H317zM487 540h131v1H487zM93 541h103v1H93zM314 541h143v1H314zM486 541h131v1H486zM92 542h93v1H92zM310 542h146v1H310zM484 542h132v1H484zM90 543h93v1H90zM307 543h147v1H307zM483 543h132v1H483zM89 544h93v1H89zM303 544h150v1H303zM481 544h133v1H481zM87 545h94v1H87zM299 545h152v1H299zM480 545h133v1H480zM86 546h42v1H86zM137 546h43v1H137zM296 546h153v1H296zM478 546h134v1H478zM84 547h30v1H84zM138 547h41v1H138zM292 547h156v1H292zM477 547h134v1H477zM83 548h14v1H83zM137 548h41v1H137zM288 548h158v1H288zM476 548h134v1H476zM82 549h7v1H82zM136 549h42v1H136zM285 549h159v1H285zM474 549h135v1H474zM80 550h7v1H80zM135 550h42v1H135zM281 550h162v1H281zM473 550h135v1H473zM79 551h7v1H79zM135 551h41v1H135zM277 551h164v1H277zM471 551h136v1H471zM78 552h7v1H78zM134 552h41v1H134zM274 552h165v1H274zM470 552h136v1H470zM77 553h7v1H77zM133 553h41v1H133zM270 553h167v1H270zM468 553h137v1H468zM76 554h7v1H76zM132 554h41v1H132zM266 554h169v1H266zM467 554h137v1H467zM75 555h7v1H75zM131 555h42v1H131zM263 555h171v1H263zM465 555h138v1H465zM73 556h7v1H73zM130 556h42v1H130zM259 556h173v1H259zM464 556h138v1H464zM72 557h7v1H72zM130 557h41v1H130zM255 557h175v1H255zM462 557h139v1H462zM71 558h7v1H71zM129 558h41v1H129zM251 558h177v1H251zM460 558h140v1H460zM70 559h7v1H70zM128 559h41v1H128zM247 559h180v1H247zM459 559h140v1H459zM69 560h7v1H69zM127 560h41v1H127zM244 560h181v1H244zM457 560h141v1H457zM68 561h7v1H68zM126 561h42v1H126zM240 561h183v1H240zM455 561h142v1H455zM67 562h6v1H67zM125 562h42v1H125zM236 562h185v1H236zM454 562h142v1H454zM66 563h6v1H66zM125 563h41v1H125zM232 563h187v1H232zM452 563h143v1H452zM65 564h6v1H65zM124 564h41v1H124zM228 564h189v1H228zM451 564h142v1H451zM64 565h6v1H64zM123 565h41v1H123zM223 565h192v1H223zM449 565h143v1H449zM63 566h6v1H63zM122 566h42v1H122zM219 566h194v1H219zM447 566h144v1H447zM62 567h6v1H62zM121 567h42v1H121zM215 567h196v1H215zM445 567h145v1H445zM61 568h6v1H61zM120 568h42v1H120zM211 568h199v1H211zM444 568h145v1H444zM60 569h6v1H60zM120 569h41v1H120zM206 569h202v1H206zM442 569h146v1H442zM59 570h6v1H59zM119 570h41v1H119zM202 570h204v1H202zM440 570h147v1H440zM58 571h6v1H58zM118 571h41v1H118zM198 571h206v1H198zM439 571h146v1H439zM57 572h6v1H57zM117 572h41v1H117zM193 572h209v1H193zM437 572h147v1H437zM56 573h6v1H56zM116 573h42v1H116zM188 573h212v1H188zM435 573h148v1H435zM55 574h6v1H55zM116 574h41v1H116zM183 574h215v1H183zM433 574h149v1H433zM54 575h6v1H54zM115 575h41v1H115zM178 575h218v1H178zM432 575h148v1H432zM53 576h6v1H53zM114 576h42v1H114zM173 576h221v1H173zM430 576h149v1H430zM52 577h6v1H52zM113 577h42v1H113zM167 577h225v1H167zM428 577h150v1H428zM51 578h6v1H51zM112 578h43v1H112zM160 578h230v1H160zM426 578h151v1H426zM50 579h7v1H50zM112 579h276v1H112zM425 579h150v1H425zM49 580h7v1H49zM111 580h275v1H111zM423 580h151v1H423zM49 581h6v1H49zM110 581h274v1H110zM421 581h152v1H421zM48 582h6v1H48zM109 582h273v1H109zM419 582h152v1H419zM47 583h6v1H47zM108 583h272v1H108zM417 583h153v1H417zM46 584h6v1H46zM107 584h271v1H107zM415 584h154v1H415zM45 585h7v1H45zM102 585h274v1H102zM414 585h153v1H414zM44 586h8v1H44zM89 586h285v1H89zM412 586h154v1H412zM44 587h328v1H44zM410 587h155v1H410zM43 588h327v1H43zM408 588h155v1H408zM42 589h326v1H42zM406 589h156v1H406zM41 590h325v1H41zM405 590h156v1H405zM40 591h323v1H40zM402 591h157v1H402zM40 592h321v1H40zM401 592h157v1H401zM39 593h320v1H39zM398 593h158v1H398zM38 594h319v1H38zM397 594h158v1H397zM38 595h317v1H38zM395 595h158v1H395zM37 596h316v1H37zM393 596h159v1H393zM36 597h314v1H36zM391 597h159v1H391zM35 598h313v1H35zM389 598h160v1H389zM35 599h311v1H35zM387 599h160v1H387zM34 600h310v1H34zM385 600h161v1H385zM33 601h308v1H33zM383 601h161v1H383zM33 602h306v1H33zM381 602h161v1H381zM32 603h305v1H32zM379 603h162v1H379zM31 604h303v1H31zM377 604h163v1H377zM31 605h301v1H31zM375 605h163v1H375zM30 606h300v1H30zM373 606h163v1H373zM29 607h298v1H29zM371 607h164v1H371zM29 608h296v1H29zM369 608h164v1H369zM28 609h295v1H28zM366 609h165v1H366zM27 610h293v1H27zM364 610h166v1H364zM27 611h291v1H27zM362 611h166v1H362zM26 612h289v1H26zM360 612h166v1H360zM25 613h288v1H25zM358 613h167v1H358zM25 614h286v1H25zM356 614h167v1H356zM24 615h284v1H24zM354 615h167v1H354zM24 616h282v1H24zM352 616h167v1H352zM23 617h280v1H23zM349 617h169v1H349zM23 618h278v1H23zM347 618h169v1H347zM22 619h276v1H22zM345 619h169v1H345zM22 620h273v1H22zM343 620h169v1H343zM21 621h272v1H21zM341 621h169v1H341zM21 622h270v1H21zM338 622h171v1H338zM20 623h268v1H20zM336 623h171v1H336zM19 624h266v1H19zM334 624h171v1H334zM19 625h264v1H19zM332 625h171v1H332zM18 626h262v1H18zM329 626h173v1H329zM18 627h260v1H18zM327 627h173v1H327zM17 628h258v1H17zM325 628h173v1H325zM17 629h255v1H17zM323 629h173v1H323zM16 630h254v1H16zM320 630h174v1H320zM16 631h251v1H16zM318 631h174v1H318zM16 632h248v1H16zM316 632h174v1H316zM15 633h247v1H15zM313 633h175v1H313zM15 634h244v1H15zM311 634h175v1H311zM14 635h242v1H14zM309 635h175v1H309zM14 636h239v1H14zM306 636h176v1H306zM14 637h237v1H14zM304 637h176v1H304zM13 638h235v1H13zM302 638h176v1H302zM13 639h232v1H13zM299 639h177v1H299zM12 640h230v1H12zM296 640h178v1H296zM12 641h228v1H12zM294 641h178v1H294zM12 642h225v1H12zM291 642h178v1H291zM11 643h223v1H11zM289 643h178v1H289zM11 644h220v1H11zM286 644h179v1H286zM11 645h217v1H11zM284 645h179v1H284zM11 646h215v1H11zM281 646h180v1H281zM10 647h213v1H10zM279 647h180v1H279zM10 648h210v1H10zM276 648h181v1H276zM10 649h207v1H10zM274 649h180v1H274zM10 650h204v1H10zM271 650h181v1H271zM9 651h202v1H9zM269 651h181v1H269zM9 652h199v1H9zM266 652h181v1H266zM9 653h196v1H9zM264 653h181v1H264zM9 654h193v1H9zM261 654h182v1H261zM9 655h191v1H9zM259 655h182v1H259zM9 656h188v1H9zM256 656h182v1H256zM8 657h186v1H8zM253 657h183v1H253zM8 658h183v1H8zM250 658h183v1H250zM8 659h179v1H8zM248 659h183v1H248zM8 660h177v1H8zM245 660h183v1H245zM8 661h173v1H8zM242 661h184v1H242zM8 662h170v1H8zM240 662h184v1H240zM8 663h167v1H8zM237 663h184v1H237zM8 664h164v1H8zM234 664h185v1H234zM8 665h161v1H8zM232 665h184v1H232zM8 666h158v1H8zM229 666h185v1H229zM8 667h154v1H8zM226 667h185v1H226zM8 668h151v1H8zM223 668h186v1H223zM8 669h148v1H8zM220 669h186v1H220zM8 670h145v1H8zM218 670h185v1H218zM9 671h141v1H9zM215 671h186v1H215zM9 672h137v1H9zM212 672h186v1H212zM9 673h134v1H9zM209 673h186v1H209zM9 674h130v1H9zM206 674h187v1H206zM10 675h126v1H10zM202 675h188v1H202zM10 676h123v1H10zM200 676h187v1H200zM10 677h119v1H10zM197 677h188v1H197zM11 678h115v1H11zM194 678h188v1H194zM11 679h112v1H11zM192 679h187v1H192zM12 680h107v1H12zM188 680h188v1H188zM12 681h103v1H12zM185 681h188v1H185zM13 682h99v1H13zM182 682h188v1H182zM13 683h95v1H13zM179 683h188v1H179zM14 684h91v1H14zM176 684h188v1H176zM15 685h86v1H15zM173 685h188v1H173zM16 686h81v1H16zM169 686h190v1H169zM17 687h76v1H17zM166 687h190v1H166zM18 688h71v1H18zM163 688h190v1H163zM20 689h65v1H20zM160 689h189v1H160zM21 690h60v1H21zM157 690h189v1H157zM23 691h54v1H23zM154 691h189v1H154zM25 692h48v1H25zM150 692h190v1H150zM29 693h37v1H29zM147 693h190v1H147zM33 694h27v1H33zM144 694h189v1H144zM45 695h4v1H45zM140 695h190v1H140zM137 696h190v1H137zM134 697h190v1H134zM131 698h189v1H131zM128 699h189v1H128zM124 700h189v1H124zM120 701h190v1H120zM116 702h190v1H116zM112 703h191v1H112zM108 704h191v1H108zM105 705h190v1H105zM101 706h191v1H101zM98 707h190v1H98zM94 708h190v1H94zM21 709h3v1H21zM90 709h190v1H90zM21 710h5v1H21zM86 710h190v1H86zM21 711h8v1H21zM81 711h191v1H81zM21 712h11v1H21zM76 712h192v1H76zM22 713h15v1H22zM70 713h194v1H70zM23 714h21v1H23zM60 714h200v1H60zM23 715h233v1H23zM24 716h228v1H24zM24 717h224v1H24zM25 718h219v1H25zM26 719h213v1H26zM27 720h207v1H27zM28 721h202v1H28zM29 722h197v1H29zM31 723h190v1H31zM32 724h184v1H32zM33 725h179v1H33zM35 726h172v1H35zM36 727h166v1H36zM38 728h159v1H38zM40 729h152v1H40zM42 730h145v1H42zM44 731h137v1H44zM46 732h129v1H46zM48 733h122v1H48zM51 734h113v1H51zM54 735h103v1H54zM57 736h93v1H57zM61 737h82v1H61zM65 738h69v1H65zM70 739h56v1H70zM76 740h41v1H76zM88 741h15v1H88z"/></svg>