<?xml version="1.0" encoding="utf-8"?><svg xmlns="http://www.w3.org/2000/svg" viewBox="0 0 1254 1254" width="1254" height="1254"><rect data-role="logo-background" width="1254" height="1254" rx="274" fill="#050505" /><path fill="#fff" d="M802 268h8v1H802zM799 269h14v1H799zM796 270h21v1H796zM793 271h26v1H793zM791 272h31v1H791zM790 273h35v1H790zM789 274h40v1H789zM789 275h43v1H789zM789 276h46v1H789zM790 277h48v1H790zM791 278h50v1H791zM792 279h52v1H792zM794 280h53v1H794zM795 281h55v1H795zM797 282h56v1H797zM798 283h58v1H798zM800 284h59v1H800zM801 285h61v1H801zM803 286h62v1H803zM943 286h4v1H943zM804 287h65v1H804zM935 287h21v1H935zM806 288h66v1H806zM929 288h31v1H929zM807 289h68v1H807zM925 289h38v1H925zM809 290h69v1H809zM921 290h45v1H921zM810 291h72v1H810zM916 291h52v1H916zM812 292h73v1H812zM912 292h57v1H912zM813 293h75v1H813zM908 293h62v1H908zM815 294h77v1H815zM904 294h66v1H904zM816 295h79v1H816zM900 295h70v1H900zM817 296h153v1H817zM819 297h151v1H819zM820 298h149v1H820zM822 299h147v1H822zM823 300h145v1H823zM825 301h142v1H825zM826 302h140v1H826zM828 303h138v1H828zM829 304h136v1H829zM831 305h133v1H831zM832 306h130v1H832zM834 307h127v1H834zM834 308h125v1H834zM832 309h125v1H832zM830 310h125v1H830zM798 311h3v1H798zM828 311h125v1H828zM787 312h16v1H787zM827 312h123v1H827zM776 313h29v1H776zM830 313h5v1H830zM842 313h105v1H842zM766 314h41v1H766zM844 314h99v1H844zM757 315h51v1H757zM845 315h95v1H845zM748 316h62v1H748zM847 316h90v1H847zM739 317h73v1H739zM848 317h85v1H848zM731 318h83v1H731zM850 318h79v1H850zM723 319h93v1H723zM851 319h75v1H851zM716 320h103v1H716zM853 320h68v1H853zM708 321h115v1H708zM854 321h63v1H854zM701 322h126v1H701zM856 322h60v1H856zM695 323h135v1H695zM858 323h57v1H858zM688 324h145v1H688zM859 324h55v1H859zM681 325h155v1H681zM861 325h52v1H861zM675 326h164v1H675zM863 326h49v1H863zM669 327h174v1H669zM864 327h47v1H864zM664 328h181v1H664zM864 328h45v1H864zM658 329h189v1H658zM864 329h44v1H864zM653 330h195v1H653zM864 330h43v1H864zM648 331h199v1H648zM864 331h42v1H864zM643 332h204v1H643zM863 332h42v1H863zM637 333h209v1H637zM863 333h41v1H863zM632 334h205v1H632zM842 334h4v1H842zM862 334h41v1H862zM627 335h207v1H627zM842 335h3v1H842zM862 335h40v1H862zM622 336h208v1H622zM842 336h2v1H842zM861 336h40v1H861zM618 337h208v1H618zM861 337h38v1H861zM613 338h209v1H613zM860 338h38v1H860zM609 339h209v1H609zM859 339h38v1H859zM605 340h209v1H605zM859 340h37v1H859zM601 341h209v1H601zM858 341h37v1H858zM596 342h211v1H596zM858 342h36v1H858zM592 343h211v1H592zM857 343h35v1H857zM588 344h211v1H588zM856 344h35v1H856zM584 345h212v1H584zM856 345h34v1H856zM580 346h212v1H580zM855 346h34v1H855zM577 347h212v1H577zM854 347h34v1H854zM573 348h212v1H573zM854 348h33v1H854zM570 349h212v1H570zM853 349h33v1H853zM566 350h213v1H566zM853 350h32v1H853zM562 351h213v1H562zM852 351h31v1H852zM558 352h215v1H558zM852 352h30v1H852zM555 353h215v1H555zM851 353h30v1H851zM552 354h214v1H552zM851 354h29v1H851zM549 355h214v1H549zM850 355h29v1H850zM545 356h215v1H545zM849 356h29v1H849zM542 357h215v1H542zM849 357h27v1H849zM539 358h215v1H539zM848 358h27v1H848zM536 359h215v1H536zM848 359h26v1H848zM533 360h216v1H533zM847 360h26v1H847zM530 361h216v1H530zM847 361h25v1H847zM527 362h216v1H527zM846 362h25v1H846zM524 363h216v1H524zM845 363h25v1H845zM521 364h217v1H521zM845 364h23v1H845zM518 365h217v1H518zM844 365h23v1H844zM515 366h217v1H515zM844 366h22v1H844zM512 367h217v1H512zM844 367h21v1H844zM509 368h217v1H509zM844 368h19v1H844zM507 369h217v1H507zM846 369h14v1H846zM504 370h217v1H504zM501 371h218v1H501zM498 372h218v1H498zM495 373h218v1H495zM493 374h218v1H493zM490 375h218v1H490zM488 376h218v1H488zM485 377h219v1H485zM483 378h218v1H483zM480 379h219v1H480zM478 380h218v1H478zM475 381h219v1H475zM473 382h218v1H473zM471 383h218v1H471zM469 384h218v1H469zM466 385h218v1H466zM464 386h218v1H464zM461 387h218v1H461zM459 388h218v1H459zM457 389h218v1H457zM455 390h217v1H455zM453 391h217v1H453zM451 392h217v1H451zM448 393h218v1H448zM446 394h217v1H446zM444 395h217v1H444zM443 396h216v1H443zM440 397h217v1H440zM438 398h216v1H438zM436 399h216v1H436zM434 400h216v1H434zM432 401h215v1H432zM431 402h214v1H431zM429 403h214v1H429zM427 404h214v1H427zM425 405h214v1H425zM423 406h214v1H423zM421 407h214v1H421zM420 408h212v1H420zM418 409h212v1H418zM416 410h212v1H416zM414 411h212v1H414zM412 412h213v1H412zM411 413h212v1H411zM409 414h211v1H409zM407 415h212v1H407zM406 416h210v1H406zM404 417h210v1H404zM402 418h210v1H402zM401 419h209v1H401zM399 420h209v1H399zM397 421h209v1H397zM396 422h208v1H396zM394 423h208v1H394zM393 424h207v1H393zM391 425h207v1H391zM390 426h207v1H390zM388 427h207v1H388zM386 428h207v1H386zM385 429h206v1H385zM383 430h206v1H383zM382 431h205v1H382zM381 432h205v1H381zM379 433h205v1H379zM378 434h204v1H378zM376 435h204v1H376zM375 436h203v1H375zM374 437h202v1H374zM372 438h202v1H372zM371 439h201v1H371zM369 440h202v1H369zM368 441h201v1H368zM367 442h200v1H367zM365 443h200v1H365zM364 444h199v1H364zM363 445h199v1H363zM362 446h198v1H362zM360 447h199v1H360zM359 448h198v1H359zM358 449h197v1H358zM357 450h197v1H357zM355 451h197v1H355zM354 452h196v1H354zM353 453h195v1H353zM352 454h195v1H352zM351 455h194v1H351zM350 456h194v1H350zM348 457h194v1H348zM347 458h193v1H347zM346 459h193v1H346zM345 460h192v1H345zM344 461h192v1H344zM343 462h191v1H343zM342 463h191v1H342zM341 464h190v1H341zM340 465h190v1H340zM339 466h189v1H339zM338 467h188v1H338zM337 468h188v1H337zM336 469h187v1H336zM335 470h187v1H335zM334 471h187v1H334zM333 472h186v1H333zM332 473h186v1H332zM331 474h185v1H331zM330 475h185v1H330zM329 476h184v1H329zM328 477h184v1H328zM327 478h183v1H327zM326 479h183v1H326zM326 480h182v1H326zM325 481h181v1H325zM324 482h181v1H324zM323 483h181v1H323zM322 484h180v1H322zM321 485h180v1H321zM321 486h179v1H321zM320 487h178v1H320zM319 488h178v1H319zM318 489h177v1H318zM318 490h176v1H318zM317 491h176v1H317zM316 492h176v1H316zM315 493h175v1H315zM315 494h174v1H315zM314 495h174v1H314zM313 496h174v1H313zM313 497h172v1H313zM312 498h172v1H312zM311 499h172v1H311zM311 500h171v1H311zM310 501h170v1H310zM309 502h170v1H309zM309 503h169v1H309zM308 504h169v1H308zM617 504h6v1H617zM307 505h169v1H307zM617 505h13v1H617zM307 506h168v1H307zM616 506h20v1H616zM306 507h168v1H306zM616 507h26v1H616zM306 508h167v1H306zM616 508h32v1H616zM305 509h166v1H305zM617 509h37v1H617zM305 510h165v1H305zM618 510h42v1H618zM304 511h165v1H304zM621 511h44v1H621zM303 512h165v1H303zM624 512h46v1H624zM303 513h164v1H303zM626 513h49v1H626zM302 514h164v1H302zM629 514h50v1H629zM302 515h163v1H302zM632 515h52v1H632zM301 516h163v1H301zM635 516h54v1H635zM301 517h162v1H301zM638 517h55v1H638zM300 518h162v1H300zM640 518h57v1H640zM300 519h161v1H300zM643 519h59v1H643zM299 520h161v1H299zM645 520h61v1H645zM299 521h160v1H299zM648 521h62v1H648zM299 522h159v1H299zM651 522h63v1H651zM298 523h159v1H298zM653 523h64v1H653zM298 524h158v1H298zM655 524h66v1H655zM297 525h158v1H297zM658 525h67v1H658zM297 526h157v1H297zM660 526h68v1H660zM297 527h156v1H297zM662 527h70v1H662zM296 528h156v1H296zM665 528h70v1H665zM296 529h155v1H296zM667 529h71v1H667zM296 530h154v1H296zM669 530h73v1H669zM295 531h154v1H295zM672 531h73v1H672zM295 532h153v1H295zM674 532h74v1H674zM294 533h153v1H294zM676 533h76v1H676zM294 534h152v1H294zM678 534h77v1H678zM294 535h152v1H294zM680 535h78v1H680zM293 536h152v1H293zM682 536h78v1H682zM293 537h151v1H293zM684 537h79v1H684zM293 538h150v1H293zM686 538h81v1H686zM292 539h150v1H292zM688 539h82v1H688zM292 540h150v1H292zM690 540h83v1H690zM292 541h149v1H292zM692 541h83v1H692zM292 542h148v1H292zM694 542h84v1H694zM291 543h148v1H291zM696 543h85v1H696zM291 544h147v1H291zM698 544h86v1H698zM291 545h147v1H291zM700 545h86v1H700zM291 546h146v1H291zM702 546h87v1H702zM291 547h145v1H291zM704 547h87v1H704zM290 548h145v1H290zM706 548h87v1H706zM290 549h145v1H290zM707 549h89v1H707zM290 550h144v1H290zM709 550h89v1H709zM290 551h143v1H290zM711 551h90v1H711zM290 552h143v1H290zM712 552h91v1H712zM290 553h142v1H290zM714 553h91v1H714zM289 554h142v1H289zM716 554h92v1H716zM289 555h142v1H289zM718 555h92v1H718zM289 556h141v1H289zM719 556h93v1H719zM289 557h141v1H289zM721 557h93v1H721zM289 558h140v1H289zM723 558h94v1H723zM289 559h139v1H289zM724 559h95v1H724zM289 560h139v1H289zM726 560h95v1H726zM289 561h138v1H289zM727 561h96v1H727zM289 562h138v1H289zM729 562h96v1H729zM289 563h137v1H289zM731 563h96v1H731zM289 564h136v1H289zM732 564h97v1H732zM289 565h136v1H289zM734 565h97v1H734zM289 566h135v1H289zM735 566h98v1H735zM289 567h135v1H289zM737 567h98v1H737zM289 568h134v1H289zM738 568h99v1H738zM289 569h134v1H289zM739 569h100v1H739zM289 570h133v1H289zM741 570h99v1H741zM289 571h133v1H289zM742 571h100v1H742zM289 572h133v1H289zM744 572h100v1H744zM289 573h132v1H289zM745 573h101v1H745zM289 574h132v1H289zM746 574h101v1H746zM289 575h132v1H289zM748 575h101v1H748zM289 576h131v1H289zM749 576h102v1H749zM289 577h131v1H289zM750 577h103v1H750zM289 578h131v1H289zM751 578h103v1H751zM289 579h130v1H289zM753 579h103v1H753zM289 580h130v1H289zM754 580h104v1H754zM290 581h129v1H290zM755 581h104v1H755zM290 582h128v1H290zM757 582h104v1H757zM290 583h128v1H290zM758 583h104v1H758zM290 584h128v1H290zM759 584h105v1H759zM290 585h128v1H290zM760 585h105v1H760zM290 586h128v1H290zM761 586h105v1H761zM291 587h126v1H291zM762 587h106v1H762zM291 588h126v1H291zM763 588h106v1H763zM291 589h126v1H291zM764 589h107v1H764zM291 590h126v1H291zM765 590h107v1H765zM291 591h126v1H291zM766 591h107v1H766zM292 592h125v1H292zM767 592h108v1H767zM292 593h125v1H292zM768 593h108v1H768zM292 594h125v1H292zM770 594h107v1H770zM293 595h124v1H293zM771 595h107v1H771zM293 596h124v1H293zM771 596h109v1H771zM293 597h124v1H293zM772 597h109v1H772zM294 598h123v1H294zM773 598h109v1H773zM294 599h123v1H294zM774 599h109v1H774zM294 600h123v1H294zM775 600h109v1H775zM295 601h122v1H295zM776 601h110v1H776zM295 602h122v1H295zM777 602h110v1H777zM296 603h121v1H296zM778 603h110v1H778zM296 604h121v1H296zM779 604h110v1H779zM297 605h121v1H297zM779 605h111v1H779zM297 606h121v1H297zM780 606h111v1H780zM297 607h121v1H297zM781 607h111v1H781zM298 608h120v1H298zM782 608h111v1H782zM299 609h120v1H299zM782 609h112v1H782zM299 610h120v1H299zM783 610h112v1H783zM300 611h119v1H300zM784 611h112v1H784zM300 612h120v1H300zM784 612h113v1H784zM301 613h119v1H301zM785 613h113v1H785zM301 614h119v1H301zM786 614h113v1H786zM302 615h119v1H302zM786 615h114v1H786zM303 616h118v1H303zM787 616h113v1H787zM303 617h119v1H303zM788 617h113v1H788zM304 618h118v1H304zM788 618h114v1H788zM305 619h118v1H305zM789 619h114v1H789zM305 620h119v1H305zM789 620h115v1H789zM306 621h118v1H306zM790 621h115v1H790zM307 622h118v1H307zM790 622h115v1H790zM308 623h118v1H308zM791 623h115v1H791zM308 624h118v1H308zM791 624h116v1H791zM309 625h118v1H309zM792 625h116v1H792zM310 626h118v1H310zM792 626h116v1H792zM311 627h118v1H311zM793 627h116v1H793zM312 628h118v1H312zM793 628h117v1H793zM313 629h118v1H313zM793 629h118v1H793zM314 630h118v1H314zM794 630h117v1H794zM315 631h118v1H315zM794 631h118v1H794zM316 632h118v1H316zM794 632h119v1H794zM317 633h118v1H317zM795 633h118v1H795zM318 634h118v1H318zM795 634h119v1H795zM319 635h119v1H319zM795 635h120v1H795zM320 636h119v1H320zM796 636h119v1H796zM321 637h119v1H321zM796 637h120v1H796zM323 638h119v1H323zM796 638h120v1H796zM324 639h119v1H324zM796 639h121v1H796zM325 640h119v1H325zM797 640h121v1H797zM326 641h120v1H326zM797 641h121v1H797zM328 642h119v1H328zM797 642h122v1H797zM329 643h120v1H329zM797 643h122v1H797zM331 644h120v1H331zM798 644h122v1H798zM332 645h120v1H332zM798 645h41v1H798zM840 645h80v1H840zM334 646h120v1H334zM798 646h42v1H798zM841 646h80v1H841zM335 647h121v1H335zM798 647h42v1H798zM841 647h80v1H841zM337 648h121v1H337zM798 648h42v1H798zM842 648h80v1H842zM338 649h122v1H338zM798 649h42v1H798zM842 649h80v1H842zM340 650h122v1H340zM798 650h42v1H798zM842 650h81v1H842zM342 651h122v1H342zM798 651h42v1H798zM842 651h81v1H842zM344 652h122v1H344zM798 652h42v1H798zM843 652h80v1H843zM346 653h122v1H346zM798 653h42v1H798zM843 653h81v1H843zM348 654h122v1H348zM798 654h43v1H798zM843 654h81v1H843zM350 655h122v1H350zM798 655h43v1H798zM843 655h81v1H843zM352 656h122v1H352zM798 656h43v1H798zM844 656h81v1H844zM354 657h123v1H354zM798 657h43v1H798zM844 657h81v1H844zM356 658h123v1H356zM798 658h43v1H798zM844 658h82v1H844zM358 659h123v1H358zM798 659h43v1H798zM844 659h82v1H844zM361 660h123v1H361zM798 660h43v1H798zM844 660h82v1H844zM363 661h124v1H363zM798 661h43v1H798zM844 661h83v1H844zM366 662h123v1H366zM797 662h44v1H797zM844 662h83v1H844zM368 663h124v1H368zM797 663h44v1H797zM844 663h83v1H844zM370 664h125v1H370zM797 664h44v1H797zM845 664h82v1H845zM373 665h125v1H373zM797 665h44v1H797zM845 665h83v1H845zM375 666h126v1H375zM797 666h43v1H797zM845 666h83v1H845zM379 667h124v1H379zM796 667h44v1H796zM845 667h83v1H845zM382 668h124v1H382zM796 668h44v1H796zM845 668h83v1H845zM384 669h126v1H384zM796 669h44v1H796zM845 669h84v1H845zM387 670h126v1H387zM796 670h44v1H796zM845 670h84v1H845zM390 671h126v1H390zM795 671h45v1H795zM845 671h84v1H845zM394 672h125v1H394zM795 672h45v1H795zM845 672h84v1H845zM397 673h125v1H397zM795 673h45v1H795zM845 673h85v1H845zM400 674h126v1H400zM794 674h45v1H794zM845 674h85v1H845zM404 675h125v1H404zM794 675h45v1H794zM845 675h85v1H845zM408 676h125v1H408zM794 676h45v1H794zM845 676h85v1H845zM412 677h124v1H412zM793 677h46v1H793zM845 677h85v1H845zM416 678h124v1H416zM793 678h46v1H793zM844 678h87v1H844zM420 679h124v1H420zM792 679h47v1H792zM844 679h87v1H844zM424 680h124v1H424zM792 680h46v1H792zM844 680h87v1H844zM428 681h124v1H428zM792 681h46v1H792zM844 681h87v1H844zM432 682h124v1H432zM791 682h47v1H791zM844 682h87v1H844zM437 683h122v1H437zM791 683h47v1H791zM844 683h87v1H844zM441 684h123v1H441zM790 684h47v1H790zM844 684h87v1H844zM446 685h122v1H446zM790 685h47v1H790zM843 685h88v1H843zM452 686h120v1H452zM789 686h48v1H789zM843 686h88v1H843zM457 687h120v1H457zM789 687h47v1H789zM843 687h88v1H843zM461 688h121v1H461zM788 688h48v1H788zM843 688h88v1H843zM467 689h119v1H467zM787 689h49v1H787zM843 689h89v1H843zM473 690h118v1H473zM787 690h48v1H787zM842 690h90v1H842zM479 691h116v1H479zM786 691h49v1H786zM842 691h90v1H842zM485 692h116v1H485zM786 692h48v1H786zM842 692h90v1H842zM493 693h113v1H493zM785 693h49v1H785zM842 693h90v1H842zM499 694h113v1H499zM784 694h50v1H784zM841 694h91v1H841zM506 695h110v1H506zM784 695h49v1H784zM841 695h91v1H841zM515 696h105v1H515zM783 696h50v1H783zM841 696h91v1H841zM523 697h97v1H523zM782 697h51v1H782zM840 697h92v1H840zM532 698h89v1H532zM782 698h50v1H782zM840 698h92v1H840zM542 699h79v1H542zM781 699h51v1H781zM840 699h91v1H840zM555 700h66v1H555zM780 700h51v1H780zM840 700h91v1H840zM571 701h49v1H571zM779 701h52v1H779zM839 701h92v1H839zM592 702h26v1H592zM778 702h52v1H778zM839 702h92v1H839zM778 703h52v1H778zM839 703h92v1H839zM777 704h52v1H777zM838 704h93v1H838zM776 705h53v1H776zM838 705h93v1H838zM775 706h53v1H775zM837 706h94v1H837zM774 707h54v1H774zM837 707h94v1H837zM773 708h54v1H773zM837 708h94v1H837zM772 709h54v1H772zM836 709h94v1H836zM771 710h55v1H771zM836 710h94v1H836zM770 711h55v1H770zM835 711h95v1H835zM769 712h56v1H769zM835 712h95v1H835zM768 713h56v1H768zM834 713h96v1H834zM767 714h57v1H767zM834 714h96v1H834zM766 715h57v1H766zM834 715h96v1H834zM765 716h57v1H765zM833 716h96v1H833zM764 717h58v1H764zM833 717h96v1H833zM763 718h58v1H763zM832 718h97v1H832zM762 719h58v1H762zM832 719h97v1H832zM761 720h59v1H761zM831 720h98v1H831zM759 721h60v1H759zM830 721h98v1H830zM758 722h60v1H758zM830 722h98v1H830zM757 723h60v1H757zM829 723h99v1H829zM756 724h61v1H756zM829 724h99v1H829zM755 725h61v1H755zM828 725h99v1H828zM753 726h62v1H753zM828 726h99v1H828zM752 727h62v1H752zM827 727h100v1H827zM751 728h63v1H751zM826 728h101v1H826zM749 729h64v1H749zM826 729h100v1H826zM748 730h64v1H748zM825 730h101v1H825zM746 731h65v1H746zM825 731h101v1H825zM745 732h66v1H745zM824 732h102v1H824zM744 733h66v1H744zM823 733h102v1H823zM742 734h67v1H742zM823 734h102v1H823zM741 735h67v1H741zM822 735h103v1H822zM739 736h68v1H739zM821 736h103v1H821zM738 737h68v1H738zM820 737h104v1H820zM736 738h69v1H736zM820 738h103v1H820zM734 739h70v1H734zM819 739h104v1H819zM733 740h70v1H733zM818 740h105v1H818zM731 741h71v1H731zM817 741h105v1H817zM729 742h72v1H729zM817 742h105v1H817zM728 743h72v1H728zM816 743h105v1H816zM726 744h73v1H726zM815 744h106v1H815zM724 745h74v1H724zM814 745h107v1H814zM723 746h74v1H723zM814 746h106v1H814zM721 747h75v1H721zM813 747h107v1H813zM719 748h76v1H719zM812 748h107v1H812zM717 749h77v1H717zM811 749h108v1H811zM715 750h78v1H715zM810 750h108v1H810zM713 751h79v1H713zM809 751h109v1H809zM712 752h79v1H712zM809 752h108v1H809zM710 753h80v1H710zM808 753h109v1H808zM707 754h82v1H707zM807 754h110v1H807zM705 755h83v1H705zM806 755h110v1H806zM703 756h84v1H703zM805 756h111v1H805zM701 757h85v1H701zM804 757h111v1H804zM699 758h85v1H699zM803 758h111v1H803zM697 759h86v1H697zM802 759h112v1H802zM695 760h87v1H695zM801 760h112v1H801zM693 761h88v1H693zM800 761h113v1H800zM691 762h89v1H691zM799 762h113v1H799zM688 763h90v1H688zM798 763h114v1H798zM686 764h91v1H686zM797 764h114v1H797zM684 765h92v1H684zM796 765h115v1H796zM681 766h94v1H681zM795 766h115v1H795zM679 767h95v1H679zM794 767h116v1H794zM677 768h95v1H677zM793 768h116v1H793zM674 769h97v1H674zM792 769h116v1H792zM672 770h98v1H672zM791 770h117v1H791zM669 771h99v1H669zM790 771h117v1H790zM667 772h100v1H667zM789 772h117v1H789zM664 773h102v1H664zM788 773h118v1H788zM661 774h104v1H661zM787 774h118v1H787zM659 775h104v1H659zM785 775h119v1H785zM656 776h106v1H656zM784 776h120v1H784zM604 777h16v1H604zM653 777h108v1H653zM783 777h120v1H783zM574 778h45v1H574zM650 778h109v1H650zM782 778h120v1H782zM544 779h72v1H544zM648 779h110v1H648zM781 779h121v1H781zM510 780h100v1H510zM645 780h111v1H645zM780 780h121v1H780zM475 781h129v1H475zM642 781h113v1H642zM779 781h121v1H779zM443 782h156v1H443zM640 782h114v1H640zM777 782h123v1H777zM428 783h167v1H428zM637 783h115v1H637zM776 783h123v1H776zM415 784h174v1H415zM634 784h117v1H634zM775 784h123v1H775zM408 785h176v1H408zM631 785h118v1H631zM774 785h123v1H774zM402 786h176v1H402zM628 786h120v1H628zM772 786h125v1H772zM397 787h175v1H397zM625 787h122v1H625zM771 787h125v1H771zM393 788h172v1H393zM622 788h123v1H622zM770 788h125v1H770zM389 789h168v1H389zM619 789h124v1H619zM769 789h125v1H769zM386 790h164v1H386zM616 790h126v1H616zM767 790h126v1H767zM383 791h161v1H383zM613 791h127v1H613zM766 791h126v1H766zM380 792h156v1H380zM609 792h130v1H609zM765 792h127v1H765zM377 793h152v1H377zM606 793h131v1H606zM763 793h128v1H763zM375 794h146v1H375zM603 794h133v1H603zM762 794h128v1H762zM372 795h141v1H372zM600 795h134v1H600zM761 795h128v1H761zM370 796h134v1H370zM597 796h136v1H597zM759 796h129v1H759zM368 797h128v1H368zM593 797h138v1H593zM758 797h130v1H758zM366 798h121v1H366zM590 798h139v1H590zM757 798h130v1H757zM364 799h116v1H364zM587 799h141v1H587zM755 799h131v1H755zM362 800h109v1H362zM584 800h142v1H584zM754 800h131v1H754zM360 801h103v1H360zM581 801h143v1H581zM753 801h131v1H753zM359 802h93v1H359zM577 802h146v1H577zM751 802h132v1H751zM357 803h93v1H357zM574 803h147v1H574zM750 803h132v1H750zM356 804h93v1H356zM570 804h150v1H570zM748 804h133v1H748zM354 805h94v1H354zM566 805h152v1H566zM747 805h133v1H747zM353 806h42v1H353zM404 806h43v1H404zM563 806h153v1H563zM745 806h134v1H745zM351 807h30v1H351zM405 807h41v1H405zM559 807h156v1H559zM744 807h134v1H744zM350 808h14v1H350zM404 808h41v1H404zM555 808h158v1H555zM743 808h134v1H743zM349 809h7v1H349zM403 809h42v1H403zM552 809h159v1H552zM741 809h135v1H741zM347 810h7v1H347zM402 810h42v1H402zM548 810h162v1H548zM740 810h135v1H740zM346 811h7v1H346zM402 811h41v1H402zM544 811h164v1H544zM738 811h136v1H738zM345 812h7v1H345zM401 812h41v1H401zM541 812h165v1H541zM737 812h136v1H737zM344 813h7v1H344zM400 813h41v1H400zM537 813h167v1H537zM735 813h137v1H735zM343 814h7v1H343zM399 814h41v1H399zM533 814h169v1H533zM734 814h137v1H734zM342 815h7v1H342zM398 815h42v1H398zM530 815h171v1H530zM732 815h138v1H732zM340 816h7v1H340zM397 816h42v1H397zM526 816h173v1H526zM731 816h138v1H731zM339 817h7v1H339zM397 817h41v1H397zM522 817h175v1H522zM729 817h139v1H729zM338 818h7v1H338zM396 818h41v1H396zM518 818h177v1H518zM727 818h140v1H727zM337 819h7v1H337zM395 819h41v1H395zM514 819h180v1H514zM726 819h140v1H726zM336 820h7v1H336zM394 820h41v1H394zM511 820h181v1H511zM724 820h141v1H724zM335 821h7v1H335zM393 821h42v1H393zM507 821h183v1H507zM722 821h142v1H722zM334 822h6v1H334zM392 822h42v1H392zM503 822h185v1H503zM721 822h142v1H721zM333 823h6v1H333zM392 823h41v1H392zM499 823h187v1H499zM719 823h143v1H719zM332 824h6v1H332zM391 824h41v1H391zM495 824h189v1H495zM718 824h142v1H718zM331 825h6v1H331zM390 825h41v1H390zM490 825h192v1H490zM716 825h143v1H716zM330 826h6v1H330zM389 826h42v1H389zM486 826h194v1H486zM714 826h144v1H714zM329 827h6v1H329zM388 827h42v1H388zM482 827h196v1H482zM712 827h145v1H712zM328 828h6v1H328zM387 828h42v1H387zM478 828h199v1H478zM711 828h145v1H711zM327 829h6v1H327zM387 829h41v1H387zM473 829h202v1H473zM709 829h146v1H709zM326 830h6v1H326zM386 830h41v1H386zM469 830h204v1H469zM707 830h147v1H707zM325 831h6v1H325zM385 831h41v1H385zM465 831h206v1H465zM706 831h146v1H706zM324 832h6v1H324zM384 832h41v1H384zM460 832h209v1H460zM704 832h147v1H704zM323 833h6v1H323zM383 833h42v1H383zM455 833h212v1H455zM702 833h148v1H702zM322 834h6v1H322zM383 834h41v1H383zM450 834h215v1H450zM700 834h149v1H700zM321 835h6v1H321zM382 835h41v1H382zM445 835h218v1H445zM699 835h148v1H699zM320 836h6v1H320zM381 836h42v1H381zM440 836h221v1H440zM697 836h149v1H697zM319 837h6v1H319zM380 837h42v1H380zM434 837h225v1H434zM695 837h150v1H695zM318 838h6v1H318zM379 838h43v1H379zM427 838h230v1H427zM693 838h151v1H693zM317 839h7v1H317zM379 839h276v1H379zM692 839h150v1H692zM316 840h7v1H316zM378 840h275v1H378zM690 840h151v1H690zM316 841h6v1H316zM377 841h274v1H377zM688 841h152v1H688zM315 842h6v1H315zM376 842h273v1H376zM686 842h152v1H686zM314 843h6v1H314zM375 843h272v1H375zM684 843h153v1H684zM313 844h6v1H313zM374 844h271v1H374zM682 844h154v1H682zM312 845h7v1H312zM369 845h274v1H369zM681 845h153v1H681zM311 846h8v1H311zM356 846h285v1H356zM679 846h154v1H679zM311 847h328v1H311zM677 847h155v1H677zM310 848h327v1H310zM675 848h155v1H675zM309 849h326v1H309zM673 849h156v1H673zM308 850h325v1H308zM672 850h156v1H672zM307 851h323v1H307zM669 851h157v1H669zM307 852h321v1H307zM668 852h157v1H668zM306 853h320v1H306zM665 853h158v1H665zM305 854h319v1H305zM664 854h158v1H664zM305 855h317v1H305zM662 855h158v1H662zM304 856h316v1H304zM660 856h159v1H660zM303 857h314v1H303zM658 857h159v1H658zM302 858h313v1H302zM656 858h160v1H656zM302 859h311v1H302zM654 859h160v1H654zM301 860h310v1H301zM652 860h161v1H652zM300 861h308v1H300zM650 861h161v1H650zM300 862h306v1H300zM648 862h161v1H648zM299 863h305v1H299zM646 863h162v1H646zM298 864h303v1H298zM644 864h163v1H644zM298 865h301v1H298zM642 865h163v1H642zM297 866h300v1H297zM640 866h163v1H640zM296 867h298v1H296zM638 867h164v1H638zM296 868h296v1H296zM636 868h164v1H636zM295 869h295v1H295zM633 869h165v1H633zM294 870h293v1H294zM631 870h166v1H631zM294 871h291v1H294zM629 871h166v1H629zM293 872h289v1H293zM627 872h166v1H627zM292 873h288v1H292zM625 873h167v1H625zM292 874h286v1H292zM623 874h167v1H623zM291 875h284v1H291zM621 875h167v1H621zM291 876h282v1H291zM619 876h167v1H619zM290 877h280v1H290zM616 877h169v1H616zM290 878h278v1H290zM614 878h169v1H614zM289 879h276v1H289zM612 879h169v1H612zM289 880h273v1H289zM610 880h169v1H610zM288 881h272v1H288zM608 881h169v1H608zM288 882h270v1H288zM605 882h171v1H605zM287 883h268v1H287zM603 883h171v1H603zM286 884h266v1H286zM601 884h171v1H601zM286 885h264v1H286zM599 885h171v1H599zM285 886h262v1H285zM596 886h173v1H596zM285 887h260v1H285zM594 887h173v1H594zM284 888h258v1H284zM592 888h173v1H592zM284 889h255v1H284zM590 889h173v1H590zM283 890h254v1H283zM587 890h174v1H587zM283 891h251v1H283zM585 891h174v1H585zM283 892h248v1H283zM583 892h174v1H583zM282 893h247v1H282zM580 893h175v1H580zM282 894h244v1H282zM578 894h175v1H578zM281 895h242v1H281zM576 895h175v1H576zM281 896h239v1H281zM573 896h176v1H573zM281 897h237v1H281zM571 897h176v1H571zM280 898h235v1H280zM569 898h176v1H569zM280 899h232v1H280zM566 899h177v1H566zM279 900h230v1H279zM563 900h178v1H563zM279 901h228v1H279zM561 901h178v1H561zM279 902h225v1H279zM558 902h178v1H558zM278 903h223v1H278zM556 903h178v1H556zM278 904h220v1H278zM553 904h179v1H553zM278 905h217v1H278zM551 905h179v1H551zM278 906h215v1H278zM548 906h180v1H548zM277 907h213v1H277zM546 907h180v1H546zM277 908h210v1H277zM543 908h181v1H543zM277 909h207v1H277zM541 909h180v1H541zM277 910h204v1H277zM538 910h181v1H538zM276 911h202v1H276zM536 911h181v1H536zM276 912h199v1H276zM533 912h181v1H533zM276 913h196v1H276zM531 913h181v1H531zM276 914h193v1H276zM528 914h182v1H528zM276 915h191v1H276zM526 915h182v1H526zM276 916h188v1H276zM523 916h182v1H523zM275 917h186v1H275zM520 917h183v1H520zM275 918h183v1H275zM517 918h183v1H517zM275 919h179v1H275zM515 919h183v1H515zM275 920h177v1H275zM512 920h183v1H512zM275 921h173v1H275zM509 921h184v1H509zM275 922h170v1H275zM507 922h184v1H507zM275 923h167v1H275zM504 923h184v1H504zM275 924h164v1H275zM501 924h185v1H501zM275 925h161v1H275zM499 925h184v1H499zM275 926h158v1H275zM496 926h185v1H496zM275 927h154v1H275zM493 927h185v1H493zM275 928h151v1H275zM490 928h186v1H490zM275 929h148v1H275zM487 929h186v1H487zM275 930h145v1H275zM485 930h185v1H485zM276 931h141v1H276zM482 931h186v1H482zM276 932h137v1H276zM479 932h186v1H479zM276 933h134v1H276zM476 933h186v1H476zM276 934h130v1H276zM473 934h187v1H473zM277 935h126v1H277zM469 935h188v1H469zM277 936h123v1H277zM467 936h187v1H467zM277 937h119v1H277zM464 937h188v1H464zM278 938h115v1H278zM461 938h188v1H461zM278 939h112v1H278zM459 939h187v1H459zM279 940h107v1H279zM455 940h188v1H455zM279 941h103v1H279zM452 941h188v1H452zM280 942h99v1H280zM449 942h188v1H449zM280 943h95v1H280zM446 943h188v1H446zM281 944h91v1H281zM443 944h188v1H443zM282 945h86v1H282zM440 945h188v1H440zM283 946h81v1H283zM436 946h190v1H436zM284 947h76v1H284zM433 947h190v1H433zM285 948h71v1H285zM430 948h190v1H430zM287 949h65v1H287zM427 949h189v1H427zM288 950h60v1H288zM424 950h189v1H424zM290 951h54v1H290zM421 951h189v1H421zM292 952h48v1H292zM417 952h190v1H417zM296 953h37v1H296zM414 953h190v1H414zM300 954h27v1H300zM411 954h189v1H411zM312 955h4v1H312zM407 955h190v1H407zM404 956h190v1H404zM401 957h190v1H401zM398 958h189v1H398zM395 959h189v1H395zM391 960h189v1H391zM387 961h190v1H387zM383 962h190v1H383zM379 963h191v1H379zM375 964h191v1H375zM372 965h190v1H372zM368 966h191v1H368zM365 967h190v1H365zM361 968h190v1H361zM288 969h3v1H288zM357 969h190v1H357zM288 970h5v1H288zM353 970h190v1H353zM288 971h8v1H288zM348 971h191v1H348zM288 972h11v1H288zM343 972h192v1H343zM289 973h15v1H289zM337 973h194v1H337zM290 974h21v1H290zM327 974h200v1H327zM290 975h233v1H290zM291 976h228v1H291zM291 977h224v1H291zM292 978h219v1H292zM293 979h213v1H293zM294 980h207v1H294zM295 981h202v1H295zM296 982h197v1H296zM298 983h190v1H298zM299 984h184v1H299zM300 985h179v1H300zM302 986h172v1H302zM303 987h166v1H303zM305 988h159v1H305zM307 989h152v1H307zM309 990h145v1H309zM311 991h137v1H311zM313 992h129v1H313zM315 993h122v1H315zM318 994h113v1H318zM321 995h103v1H321zM324 996h93v1H324zM328 997h82v1H328zM332 998h69v1H332zM337 999h56v1H337zM343 1000h41v1H343zM355 1001h15v1H355z" /></svg>